<?xml version="1.0" encoding="utf-8"?>
<!-- Generator: Adobe Illustrator 16.0.0, SVG Export Plug-In . SVG Version: 6.00 Build 0)  -->
<!DOCTYPE svg PUBLIC "-//W3C//DTD SVG 1.1//EN" "http://www.w3.org/Graphics/SVG/1.1/DTD/svg11.dtd">
<svg version="1.1" id="图层_1" xmlns="http://www.w3.org/2000/svg" xmlns:xlink="http://www.w3.org/1999/xlink" x="0px" y="0px"
	 width="358px" height="54.667px" viewBox="0 19 358 54.667" enable-background="new 0 19 358 54.667" xml:space="preserve">
<rect x="5.5" y="22.356" fill="#FFFFFF" width="41.135" height="11.686"/>
<rect x="56.161" y="22.356" fill="#FFFFFF" width="11.685" height="47.915"/>
<rect x="156.08" y="22.356" fill="#FFFFFF" width="11.687" height="47.915"/>
<rect x="185.53" y="22.356" fill="#FFFFFF" width="11.688" height="47.915"/>
<rect x="237.593" y="32.231" fill="#FCFCFC" width="11.687" height="28.163"/>
<rect x="310.867" y="32.231" fill="#FCFCFC" width="11.685" height="38.04"/>
<rect x="340.315" y="22.356" fill="#FCFCFC" width="11.687" height="47.915"/>
<rect x="271.892" y="40.469" fill="#FCFCFC" width="17.766" height="11.688"/>
<rect x="219.829" y="22.356" fill="#FCFCFC" width="17.764" height="9.875"/>
<rect x="219.829" y="60.395" fill="#FCFCFC" width="17.764" height="9.875"/>
<rect x="271.892" y="22.356" fill="#FCFCFC" width="17.766" height="9.875"/>
<rect x="310.867" y="22.356" fill="#FCFCFC" width="29.448" height="9.875"/>
<rect x="322.552" y="60.395" fill="#FCFCFC" width="17.764" height="9.875"/>
<rect x="208.145" y="22.356" fill="#FCFCFC" width="11.685" height="47.915"/>
<rect x="260.206" y="22.356" fill="#FCFCFC" width="11.686" height="47.915"/>
<rect x="289.654" y="22.356" fill="#FCFCFC" width="11.686" height="47.915"/>
<rect x="105.418" y="22.589" fill="#FFFFFF" width="11.687" height="47.915"/>
<rect x="136.272" y="57.648" fill="#FFFFFF" width="11.686" height="12.855"/>
<rect x="136.272" y="22.589" fill="#FFFFFF" width="11.686" height="29.566"/>
<rect x="56.161" y="22.356" fill="#FFFFFF" width="41.136" height="11.686"/>
<rect x="156.08" y="22.356" fill="#FFFFFF" width="41.138" height="11.686"/>
<rect x="156.08" y="58.817" fill="#FFFFFF" width="41.138" height="11.687"/>
<rect x="105.418" y="22.589" fill="#FFFFFF" width="42.54" height="11.686"/>
<rect x="105.418" y="40.469" fill="#FFFFFF" width="42.54" height="11.688"/>
<rect x="28.648" y="28.149" transform="matrix(0.8082 0.5889 -0.5889 0.8082 30.61 -12.4982)" fill="#FFFFFF" width="11.686" height="25.183"/>
<rect x="56.161" y="58.582" fill="#FFFFFF" width="41.136" height="11.687"/>
<rect x="67.846" y="40.469" fill="#FFFFFF" width="29.451" height="11.688"/>
<rect x="5.5" y="58.817" fill="#FFFFFF" width="41.135" height="11.687"/>
<rect x="185.53" y="22.356" fill="#FF7F0B" width="11.688" height="11.686"/>
</svg>
