<?xml version="1.0" encoding="utf-8"?>
<!-- Generator: Adobe Illustrator 16.0.0, SVG Export Plug-In . SVG Version: 6.00 Build 0)  -->
<!DOCTYPE svg PUBLIC "-//W3C//DTD SVG 1.1//EN" "http://www.w3.org/Graphics/SVG/1.1/DTD/svg11.dtd">
<svg version="1.1" id="图层_1" xmlns="http://www.w3.org/2000/svg" xmlns:xlink="http://www.w3.org/1999/xlink" x="0px" y="0px"
	 width="442.049px" height="84.327px" viewBox="0 0 442.049 84.327" enable-background="new 0 0 442.049 84.327"
	 xml:space="preserve">
<path fill="#FFFFFF" d="M33.422,0C14.964,0,0,14.964,0,33.423s14.964,33.423,33.422,33.423c18.459,0,33.423-14.964,33.423-33.423
	S51.881,0,33.422,0 M33.422,55.054c-11.785,0-21.338-9.686-21.338-21.631c0-11.946,9.553-21.631,21.338-21.631
	S54.76,21.477,54.76,33.423C54.76,45.369,45.207,55.054,33.422,55.054"/>
<path fill="#FFFFFF" d="M107.557,25.39v19.408c0,5.377-4.358,9.735-9.735,9.735s-9.735-4.358-9.735-9.735V25.39v-7.596H75.94v27.17
	c0,12.085,9.796,21.882,21.881,21.882c3.514,0,8.751-1.557,9.766-5.387v5.336h12.084V45.568c0.006-0.202,0.031-0.399,0.031-0.604
	v-27.17h-12.146V25.39z"/>
<path fill="#FFFFFF" d="M262.847,18.546c-4.484,0-8.668,1.246-12.265,3.379v-3.793h-12.146v18.506v47.283v0.405h12.146V63.392
	c3.597,2.132,7.78,3.379,12.265,3.379c13.317,0,24.112-10.796,24.112-24.112C286.959,29.341,276.164,18.546,262.847,18.546
	 M262.847,54.625c-6.609,0-11.967-5.358-11.967-11.967c0-6.609,5.357-11.967,11.967-11.967s11.967,5.357,11.967,11.967
	C274.813,49.267,269.456,54.625,262.847,54.625"/>
<path fill="#FFFFFF" d="M317.373,18.132c-13.316,0-24.112,10.796-24.112,24.112c0,13.317,10.796,24.112,24.112,24.112
	c4.359,0,8.438-1.174,11.967-3.197v3.975h12.146v-6.958V42.397v-0.152C341.485,28.928,330.689,18.132,317.373,18.132
	 M317.373,54.211c-6.609,0-11.967-5.357-11.967-11.967c0-6.608,5.357-11.967,11.967-11.967s11.967,5.358,11.967,11.967
	C329.34,48.854,323.982,54.211,317.373,54.211"/>
<path fill="#FFFFFF" d="M372.815,54.211c-6.609,0-11.967-5.357-11.967-11.967c0-6.608,5.357-11.968,11.967-11.968
	c2.937,0,5.622,1.063,7.704,2.817l6.656-6.656l1.932-1.932c-4.293-3.945-10.002-6.374-16.292-6.374
	c-13.317,0-24.112,10.796-24.112,24.112c0,13.317,10.795,24.112,24.112,24.112c6.32,0,12.054-2.45,16.354-6.43l-8.589-8.588
	C378.49,53.126,375.781,54.211,372.815,54.211"/>
<path fill="#FFFFFF" d="M412.538,31.88c0.056,0.032,0.108,0.066,0.163,0.1C412.646,31.947,412.594,31.913,412.538,31.88
	L412.538,31.88z"/>
<path fill="#FFFFFF" d="M441.715,38.407c-0.877-5.47-3.584-10.314-7.486-13.9c0,0,0-0.001-0.001-0.001
	c-0.534-0.492-1.09-0.959-1.668-1.401c-0.005-0.004-0.011-0.009-0.017-0.012c-0.566-0.434-1.15-0.843-1.756-1.225
	c-0.035-0.023-0.071-0.043-0.106-0.065c-0.576-0.359-1.165-0.699-1.773-1.011c-0.015-0.008-0.031-0.016-0.048-0.023
	c-0.074-0.037-0.148-0.07-0.222-0.106c-0.563-0.279-1.131-0.545-1.717-0.781c-0.165-0.066-0.336-0.121-0.503-0.184
	c-0.524-0.198-1.052-0.393-1.594-0.553c-0.266-0.079-0.541-0.138-0.811-0.208c-0.46-0.121-0.918-0.247-1.389-0.34
	c-0.114-0.022-0.232-0.032-0.348-0.052c-0.297-0.048-0.594-0.093-0.893-0.137c-0.354-0.051-0.701-0.118-1.061-0.153h-0.001
	c-0.288-0.03-0.584-0.026-0.875-0.045c-0.503-0.032-1.002-0.076-1.512-0.076h-0.001c-0.808,0-1.605,0.043-2.394,0.121
	c-0.364,0.036-0.719,0.104-1.077,0.157c-0.41,0.059-0.824,0.107-1.229,0.187c-0.481,0.096-0.951,0.224-1.42,0.349
	c-0.263,0.068-0.529,0.125-0.788,0.202c-0.553,0.167-1.092,0.363-1.628,0.568c-0.158,0.06-0.319,0.111-0.476,0.173
	c-0.599,0.244-1.183,0.515-1.755,0.804c-0.079,0.039-0.162,0.075-0.241,0.116c-0.616,0.318-1.217,0.663-1.802,1.033
	c-0.028,0.018-0.059,0.034-0.087,0.053c-0.611,0.39-1.203,0.805-1.775,1.245c-0.002,0.001-0.004,0.003-0.006,0.005
	c-0.58,0.447-1.14,0.92-1.675,1.416l-0.003,0.001c-4.76,4.404-7.758,10.687-7.758,17.683c0,7.028,3.035,13.319,7.835,17.724
	l-0.016,0.016c0.535,0.491,1.092,0.959,1.669,1.401c0.006,0.003,0.011,0.008,0.017,0.012c0.566,0.434,1.152,0.842,1.756,1.226
	c0.035,0.021,0.071,0.043,0.107,0.064c0.575,0.361,1.166,0.698,1.772,1.012c0.088,0.045,0.179,0.085,0.268,0.129
	c0.563,0.281,1.134,0.545,1.719,0.781c0.165,0.066,0.335,0.121,0.503,0.184c0.524,0.199,1.052,0.39,1.594,0.552
	c0.265,0.08,0.538,0.139,0.808,0.208c0.461,0.122,0.921,0.248,1.393,0.342c0.408,0.079,0.825,0.129,1.24,0.188
	c0.353,0.052,0.701,0.119,1.06,0.154c0.786,0.077,1.582,0.12,2.389,0.12c0.809,0,1.606-0.043,2.395-0.12
	c0.363-0.037,0.718-0.105,1.076-0.157c0.411-0.06,0.825-0.109,1.229-0.188c0.48-0.095,0.95-0.224,1.421-0.348
	c0.262-0.07,0.529-0.126,0.787-0.203c0.554-0.166,1.093-0.362,1.628-0.566c0.158-0.061,0.319-0.111,0.476-0.176
	c0.599-0.241,1.182-0.513,1.754-0.801c0.081-0.04,0.163-0.076,0.242-0.117c0.617-0.318,1.217-0.664,1.802-1.032
	c0.029-0.019,0.06-0.035,0.088-0.055c0.61-0.388,1.202-0.804,1.775-1.245c0.002-0.002,0.004-0.003,0.006-0.005
	c0.579-0.445,1.139-0.918,1.674-1.416h0.002l-8.589-8.588h-0.001c-0.5,0.429-1.041,0.811-1.607,1.153
	c-0.043,0.025-0.086,0.053-0.13,0.078c-0.547,0.32-1.123,0.598-1.722,0.83c-0.072,0.026-0.146,0.053-0.218,0.079
	c-0.596,0.218-1.211,0.394-1.847,0.515c-0.07,0.014-0.144,0.02-0.213,0.032c-0.66,0.112-1.335,0.185-2.027,0.185
	c-0.674,0-1.331-0.071-1.975-0.178c-0.202-0.033-0.396-0.087-0.596-0.131c-0.438-0.098-0.869-0.212-1.29-0.355
	c-0.213-0.074-0.423-0.152-0.631-0.237c-0.397-0.162-0.782-0.348-1.155-0.55c-0.188-0.102-0.38-0.195-0.561-0.306
	c-0.428-0.262-0.832-0.555-1.223-0.865c-1.391-1.11-2.541-2.509-3.327-4.126h12.883h8.63h0.001h9.163h3.611
	c0.371-1.683,0.582-3.425,0.582-5.219C442.049,40.935,441.916,39.66,441.715,38.407 M429.262,38.407h-9.2h-13.452
	c0.739-2.185,2.109-4.063,3.868-5.478c0.002-0.001,0.004-0.002,0.005-0.002c0.321-0.259,0.656-0.496,1.004-0.72
	c0.205-0.132,0.408-0.265,0.622-0.385c0.373-0.21,0.761-0.389,1.159-0.559c0.217-0.092,0.427-0.193,0.65-0.273
	c0.437-0.156,0.889-0.271,1.347-0.375c0.204-0.048,0.4-0.113,0.608-0.149c0.671-0.118,1.357-0.188,2.063-0.188
	c0.359,0,0.701,0.06,1.051,0.095c0.304,0.03,0.615,0.032,0.913,0.082c0.041,0.007,0.084,0.01,0.125,0.017
	c-0.004-0.001-0.008-0.001-0.011-0.002c0.004,0.001,0.008,0.001,0.012,0.002c0.048,0.008,0.094,0.014,0.142,0.022
	c0.62,0.117,1.221,0.288,1.803,0.496c0.001,0,0.001,0.001,0.001,0.001c0.06,0.021,0.119,0.043,0.178,0.063
	c0.002,0.001,0.003,0.002,0.005,0.002c-0.002,0-0.004-0.001-0.006-0.002c0.609,0.23,1.195,0.505,1.752,0.826
	c-0.037-0.021-0.079-0.035-0.117-0.055c0.039,0.02,0.081,0.033,0.118,0.055h0.001c0.055,0.032,0.107,0.066,0.162,0.1
	c0.987,0.59,1.88,1.317,2.656,2.156c0.051,0.056,0.101,0.11,0.149,0.166c0.688,0.772,1.275,1.63,1.746,2.563
	c0.011,0.022,0.021,0.046,0.033,0.069C428.884,37.409,429.091,37.899,429.262,38.407L429.262,38.407L429.262,38.407z"/>
<path fill="#FFFFFF" d="M144.732,25.182v-1.934V18.02h-12.251v24.042v1.676v23.058h12.251V52.489v-1.511v-7.663V42.72v-0.781
	c0.528-4.856,4.565-8.652,9.555-8.681h15.553V21.106h-15.662C150.789,21.106,146.816,22.155,144.732,25.182"/>
<path fill="#FFFFFF" d="M179.448,29.991c-0.161,0.873-0.257,1.77-0.257,2.688c0,7.398,5.442,13.508,12.538,14.587l-0.003,0.02
	l6.975,1.026c0,0.001-0.001,0.002-0.001,0.003l14.331,2.154c1.108,0.241,1.956,1.181,1.956,2.361c0,1.295-1.008,2.326-2.277,2.426
	c-0.064,0.005-0.12,0.038-0.186,0.038H198.2h-19.238v12.084h33.563c7.194,0,13.151-5.226,14.323-12.084
	c0.138-0.803,0.225-1.622,0.225-2.464c0-7.524-5.712-13.712-13.035-14.469v-0.001l-6.314-0.953l-13.97-2.235l0.002-0.034
	c-1.277-0.111-2.29-1.151-2.29-2.459c0-1.381,1.119-2.501,2.501-2.501c0.023,0,0.043,0.014,0.065,0.014l0.001-0.015l14.463-0.104
	l18.88-0.082V17.906h-33.409C186.727,17.906,180.714,23.118,179.448,29.991"/>
<rect x="-183.078" y="-185.091" fill="none" width="720" height="405.349"/>
</svg>
