<?xml version="1.0" encoding="utf-8"?>
<!-- Generator: Adobe Illustrator 16.0.0, SVG Export Plug-In . SVG Version: 6.00 Build 0)  -->
<!DOCTYPE svg PUBLIC "-//W3C//DTD SVG 1.1//EN" "http://www.w3.org/Graphics/SVG/1.1/DTD/svg11.dtd">
<svg version="1.1" id="图层_1" xmlns="http://www.w3.org/2000/svg" xmlns:xlink="http://www.w3.org/1999/xlink" x="0px" y="0px"
	 width="595.28px" height="176px" viewBox="0 0 595.28 176" enable-background="new 0 0 595.28 176" xml:space="preserve">
<path fill="#002FA7" d="M114.666,124.47c-3.017,8.332-7.509,15.752-13.371,21.73c-3.903,3.984-8.417,7.32-13.413,9.808
	c-6.577,3.28-14.039,5.086-21.974,5.086c-0.004,0-0.006,0-0.01,0c-0.027,0-0.055,0-0.083,0l0,0
	C8.667,161.004-8.002,75.425,37.632,41.034c8.267-6.216,18.056-10.001,28.276-10c0.003,0,0.007,0.001,0.012,0
	C105.027,31.033,130.31,81.216,114.666,124.47z M79.814,59.767c-4.069-3.149-8.823-5.163-13.905-5.163
	c-14.23,0-30.946,17.553-30.946,42.344c-0.001,21.814,11.52,40.552,30.946,40.582C99.578,137.49,105.394,79.526,79.814,59.767z"/>
<path fill="#002FA7" d="M299.697,95.931c0,0.005,0,0.008,0,0.01c0,0.005,0,0.01,0,0.016c-0.031,35.102-24.972,62.979-59.476,62.979
	c-0.01,0-46.012,0-46.023,0h-0.001c-6.51,0-11.785-5.275-11.785-11.783V44.631c0-0.023,0.005-0.045,0.005-0.068
	c0-0.024-0.005-0.046-0.005-0.07c0-6.508,5.275-11.784,11.785-11.784c0.581,0,1.149,0.056,1.71,0.138h44.28c0.018,0,0.035,0,0.05,0
	c9.736,0,18.893,2.257,26.868,6.352c7.995,4.094,14.784,9.997,20.017,17.081c3.49,4.723,6.302,9.971,8.372,15.58
	c2.76,7.48,4.204,15.607,4.204,24.034C299.697,95.905,299.697,95.918,299.697,95.931z M276.13,95.894
	c0-6.45-1.245-12.426-3.447-17.644c-2.206-5.221-5.357-9.677-9.221-13.167c-2.583-2.328-5.478-4.231-8.683-5.666
	c-4.277-1.906-9.105-2.997-14.593-3.002h-34.205v78.956c12.6,0,30.734,0,34.205,0C262.271,135.34,276.127,117.345,276.13,95.894z"/>
<path fill="#002FA7" d="M436.586,147.147c0,6.512-5.276,11.788-11.785,11.788c-4.585,0-8.552-2.627-10.499-6.452l-0.007,0.005
	l-12.159-23.938h-31.856c-6.51,0-11.785-5.275-11.785-11.788c0-6.505,5.275-11.783,11.785-11.783h19.885L372.73,70.65
	l-41.568,81.837l-0.008-0.005c-1.946,3.825-5.913,6.452-10.498,6.452c-6.51,0-11.785-5.275-11.785-11.783
	c0-1.924,0.47-3.729,1.287-5.335l-0.01-0.005l51.617-101.619c1.72-4.38,5.974-7.486,10.965-7.486c4.988,0,9.244,3.105,10.961,7.486
	l51.617,101.619l-0.007,0.005C436.117,143.423,436.586,145.228,436.586,147.147z"/>
<path fill="#002FA7" d="M586.202,96.589c0,0.027,0,0.055,0,0.083c-0.042,36.725-29.817,66.682-66.754,66.682l0,0
	c-0.004,0-0.007,0-0.011,0c-0.003,0-0.006,0-0.009,0l0,0c-36.941,0-66.762-29.987-66.758-66.764
	c-0.003-36.592,29.471-66.344,65.988-66.755v-0.005l0.753-0.005c0.003,0,0.025,0,0.029,0
	C556.279,29.823,586.208,59.701,586.202,96.589z M562.632,96.589c-0.003-23.779-19.236-43.189-43.194-43.197
	c-23.817,0.005-43.19,19.277-43.196,43.197c0.003,17.954,10.935,33.276,26.385,39.804c5.163,2.184,10.815,3.391,16.812,3.391
	C543.256,139.778,562.625,120.501,562.632,96.589z"/>
<path fill="#E00E5F" d="M160.37,47.531c-1.116,3.082-2.776,5.825-4.945,8.038c-1.442,1.474-3.113,2.707-4.961,3.627
	c-2.434,1.214-5.192,1.882-8.128,1.882c-0.001,0-0.002,0-0.002,0c-0.011,0-0.021-0.001-0.031-0.001v0.001
	c-21.139-0.035-27.303-31.688-10.423-44.409c3.056-2.3,6.679-3.7,10.457-3.699c0.001,0,0.004,0,0.005,0
	C156.805,12.971,166.156,31.531,160.37,47.531z M145.651,28.212c-0.989-0.765-2.142-1.252-3.377-1.252
	c-3.455,0-7.512,4.261-7.512,10.279c-0.001,5.296,2.796,9.845,7.512,9.853C150.449,47.082,151.861,33.01,145.651,28.212z"/>
</svg>
